<?xml version="1.0" encoding="UTF-8" standalone="no"?>
<!-- Created with Inkscape (http://www.inkscape.org/) -->

<svg
   sodipodi:docname="VSR-SANS-B.svg"
   id="svg5"
   version="1.1"
   viewBox="0 0 139.57761 47.888451"
   height="47.888451mm"
   width="139.57761mm"
   inkscape:version="1.1 (c4e8f9e, 2021-05-24)"
   xmlns:inkscape="http://www.inkscape.org/namespaces/inkscape"
   xmlns:sodipodi="http://sodipodi.sourceforge.net/DTD/sodipodi-0.dtd"
   xmlns="http://www.w3.org/2000/svg"
   xmlns:svg="http://www.w3.org/2000/svg">
  <sodipodi:namedview
     id="namedview7"
     pagecolor="#ffffff"
     bordercolor="#666666"
     borderopacity="1.0"
     inkscape:pageshadow="2"
     inkscape:pageopacity="0.0"
     inkscape:pagecheckerboard="0"
     inkscape:document-units="mm"
     showgrid="false"
     inkscape:zoom="0.57905443"
     inkscape:cx="-241.77347"
     inkscape:cy="328.98462"
     inkscape:window-width="1312"
     inkscape:window-height="847"
     inkscape:window-x="0"
     inkscape:window-y="25"
     inkscape:window-maximized="0"
     inkscape:current-layer="text44432"
     fit-margin-top="0"
     fit-margin-left="0"
     fit-margin-right="0"
     fit-margin-bottom="0" />
  <defs
     id="defs2" />
  <g
     inkscape:label="Layer 1"
     inkscape:groupmode="layer"
     id="layer1"
     transform="translate(-30.737871,-61.752968)">
    <g
       aria-label="Virtual Space
and
Global Communications
Research"
       id="text44432"
       style="font-size:10.5833px;line-height:1.25;stroke-width:0.264583">
      <path
         d="m 38.571993,62.099199 -2.806021,7.694597 h -2.22208 l -2.806021,-7.694597 h 2.082553 l 1.860346,5.405338 1.860346,-5.405338 z"
         style="font-weight:bold;-inkscape-font-specification:'sans-serif Bold'"
         id="path98" />
      <path
         d="m 41.434859,69.793796 h -1.860346 v -5.803245 h 1.860346 z m 0.05168,-6.630066 h -1.963698 v -1.410762 h 1.963698 z"
         style="font-weight:bold;-inkscape-font-specification:'sans-serif Bold'"
         id="path100" />
      <path
         d="m 47.398299,65.763047 h -0.165364 q -0.118855,-0.04134 -0.382404,-0.06201 -0.263549,-0.02067 -0.439248,-0.02067 -0.397908,0 -0.702798,0.05168 -0.30489,0.05168 -0.656288,0.175699 v 3.886056 h -1.860346 v -5.803245 h 1.860346 v 0.852658 q 0.614947,-0.527098 1.069698,-0.697629 0.454752,-0.1757 0.837156,-0.1757 0.09819,0 0.222208,0.0052 0.124023,0.0052 0.21704,0.0155 z"
         style="font-weight:bold;-inkscape-font-specification:'sans-serif Bold'"
         id="path102" />
      <path
         d="m 52.173186,69.742119 q -0.299722,0.07751 -0.635618,0.118856 -0.335896,0.04651 -0.821653,0.04651 -1.085201,0 -1.617467,-0.439248 -0.527098,-0.43925 -0.527098,-1.503781 v -2.713004 h -0.764809 v -1.260901 h 0.764809 v -1.658808 h 1.860346 v 1.658808 h 1.74149 v 1.260901 h -1.74149 v 2.056715 q 0,0.30489 0.0052,0.532266 0.0052,0.227375 0.08268,0.408242 0.07235,0.180867 0.253214,0.289387 0.186035,0.103353 0.537433,0.103353 0.144694,0 0.377237,-0.06201 0.237711,-0.06201 0.330728,-0.113688 h 0.155029 z"
         style="font-weight:bold;-inkscape-font-specification:'sans-serif Bold'"
         id="path104" />
      <path
         d="M 59.061633,69.793796 H 57.201288 V 69.15301 q -0.516763,0.392739 -0.945676,0.599445 -0.428913,0.201537 -1.02319,0.201537 -0.961179,0 -1.483109,-0.552936 -0.516763,-0.552936 -0.516763,-1.63297 v -3.777535 h 1.870681 v 2.878368 q 0,0.439248 0.02584,0.733803 0.03101,0.289387 0.134359,0.480589 0.09818,0.191202 0.294554,0.279052 0.201538,0.08785 0.558104,0.08785 0.237711,0 0.527098,-0.08785 0.289387,-0.08785 0.558104,-0.258381 v -4.113431 h 1.860345 z"
         style="font-weight:bold;-inkscape-font-specification:'sans-serif Bold'"
         id="path106" />
      <path
         d="m 64.33778,68.279681 v -1.209225 q -0.377237,0.03101 -0.816485,0.08785 -0.439248,0.05168 -0.666624,0.124023 -0.279052,0.08785 -0.428913,0.258381 -0.144693,0.165364 -0.144693,0.439249 0,0.180867 0.03101,0.294554 0.03101,0.113688 0.155029,0.217041 0.118856,0.103352 0.28422,0.155028 0.165364,0.04651 0.516762,0.04651 0.279052,0 0.563272,-0.113688 0.289387,-0.113688 0.506427,-0.299722 z m 0,0.899167 q -0.149861,0.113688 -0.372069,0.273884 -0.222208,0.160197 -0.418578,0.253214 -0.273884,0.124023 -0.568439,0.180867 -0.294555,0.06201 -0.645953,0.06201 -0.82682,0 -1.384924,-0.511595 -0.558104,-0.511595 -0.558104,-1.307409 0,-0.635618 0.28422,-1.038693 0.284219,-0.403075 0.806149,-0.635618 0.516763,-0.232544 1.281572,-0.330728 0.764809,-0.09818 1.586461,-0.144694 v -0.03101 q 0,-0.480589 -0.392739,-0.661456 -0.39274,-0.186035 -1.157549,-0.186035 -0.459919,0 -0.981849,0.165365 -0.52193,0.160196 -0.749306,0.248046 h -0.170531 v -1.400427 q 0.294554,-0.07752 0.956011,-0.180867 0.666623,-0.10852 1.333247,-0.10852 1.586462,0 2.289259,0.490924 0.707965,0.485757 0.707965,1.529618 v 3.948067 H 64.33778 Z"
         style="font-weight:bold;-inkscape-font-specification:'sans-serif Bold'"
         id="path108" />
      <path
         d="m 69.753454,69.793796 h -1.860345 v -8.040828 h 1.860345 z"
         style="font-weight:bold;-inkscape-font-specification:'sans-serif Bold'"
         id="path110" />
      <path
         d="m 81.390949,67.375346 q 0,1.136878 -0.966346,1.850011 -0.961179,0.707965 -2.61482,0.707965 -0.956011,0 -1.669143,-0.165365 -0.707965,-0.170531 -1.32808,-0.428913 v -1.844842 h 0.21704 q 0.614948,0.490924 1.374589,0.754473 0.764809,0.263549 1.467606,0.263549 0.180867,0 0.475422,-0.03101 0.294554,-0.031 0.480589,-0.103352 0.227375,-0.09302 0.372069,-0.232543 0.149861,-0.139526 0.149861,-0.413411 0,-0.253213 -0.21704,-0.43408 -0.211873,-0.186035 -0.625283,-0.28422 -0.434081,-0.103352 -0.919838,-0.191202 -0.480589,-0.09302 -0.904334,-0.232543 -0.971514,-0.315225 -1.400427,-0.852658 -0.423745,-0.542601 -0.423745,-1.343583 0,-1.074867 0.961178,-1.751826 0.966346,-0.682127 2.480461,-0.682127 0.759641,0 1.498612,0.149862 0.744138,0.144693 1.286739,0.366901 v 1.772496 h -0.211873 q -0.465086,-0.372065 -1.142045,-0.620111 -0.671792,-0.253214 -1.374589,-0.253214 -0.248046,0 -0.496092,0.03617 -0.242879,0.03101 -0.470254,0.124023 -0.201538,0.07751 -0.346231,0.23771 -0.144694,0.155029 -0.144694,0.356567 0,0.30489 0.232543,0.470254 0.232544,0.160196 0.878497,0.294554 0.423745,0.08785 0.811317,0.170532 0.39274,0.08268 0.842323,0.227376 0.883665,0.289387 1.302242,0.790647 0.423746,0.496092 0.423746,1.291906 z"
         style="font-weight:bold;-inkscape-font-specification:'sans-serif Bold'"
         id="path112" />
      <path
         d="m 88.708307,66.812075 q 0,0.7183 -0.222208,1.30741 -0.21704,0.589109 -0.573607,0.971513 -0.372069,0.403075 -0.842323,0.60978 -0.470254,0.206705 -1.007687,0.206705 -0.496092,0 -0.842323,-0.10852 -0.346231,-0.103352 -0.707965,-0.294555 v 2.41845 h -1.860346 v -7.932307 h 1.860346 v 0.604612 q 0.428913,-0.341063 0.873329,-0.552936 0.449583,-0.211873 1.033525,-0.211873 1.085202,0 1.684646,0.795815 0.604613,0.795814 0.604613,2.185906 z m -1.91719,0.03617 q 0,-0.84749 -0.289387,-1.229895 -0.289387,-0.382404 -0.91467,-0.382404 -0.263549,0 -0.542601,0.08268 -0.279051,0.07751 -0.532265,0.227375 v 2.919709 q 0.186034,0.07235 0.397907,0.09302 0.211873,0.02067 0.418578,0.02067 0.738971,0 1.100704,-0.428913 0.361734,-0.43408 0.361734,-1.302242 z"
         style="font-weight:bold;-inkscape-font-specification:'sans-serif Bold'"
         id="path114" />
      <path
         d="m 93.565878,68.279681 v -1.209225 q -0.377237,0.03101 -0.816485,0.08785 -0.439248,0.05168 -0.666624,0.124023 -0.279052,0.08785 -0.428913,0.258381 -0.144694,0.165364 -0.144694,0.439249 0,0.180867 0.03101,0.294554 0.03101,0.113688 0.155029,0.217041 0.118855,0.103352 0.284219,0.155028 0.165365,0.04651 0.516763,0.04651 0.279052,0 0.563271,-0.113688 0.289388,-0.113688 0.506428,-0.299722 z m 0,0.899167 q -0.149861,0.113688 -0.372069,0.273884 -0.222208,0.160197 -0.418578,0.253214 -0.273884,0.124023 -0.568439,0.180867 -0.294555,0.06201 -0.645953,0.06201 -0.826821,0 -1.384924,-0.511595 -0.558104,-0.511595 -0.558104,-1.307409 0,-0.635618 0.28422,-1.038693 0.284219,-0.403075 0.806149,-0.635618 0.516763,-0.232544 1.281572,-0.330728 0.764809,-0.09818 1.586461,-0.144694 v -0.03101 q 0,-0.480589 -0.392739,-0.661456 -0.39274,-0.186035 -1.157549,-0.186035 -0.459919,0 -0.981849,0.165365 -0.52193,0.160196 -0.749306,0.248046 h -0.170532 v -1.400427 q 0.294555,-0.07752 0.956011,-0.180867 0.666624,-0.10852 1.333248,-0.10852 1.586462,0 2.289259,0.490924 0.707965,0.485757 0.707965,1.529618 v 3.948067 h -1.844843 z"
         style="font-weight:bold;-inkscape-font-specification:'sans-serif Bold'"
         id="path116" />
      <path
         d="m 100.14427,69.948824 q -0.759645,0 -1.390095,-0.180867 -0.625283,-0.180866 -1.090369,-0.558103 -0.459919,-0.377237 -0.713133,-0.950844 -0.253214,-0.573606 -0.253214,-1.343583 0,-0.811317 0.268717,-1.400426 0.273884,-0.58911 0.759641,-0.976682 0.470254,-0.366901 1.085202,-0.537433 0.614947,-0.170532 1.276401,-0.170532 0.59428,0 1.09554,0.129191 0.50126,0.129191 0.93534,0.335896 v 1.586461 h -0.26355 q -0.10852,-0.09302 -0.26355,-0.21704 -0.14986,-0.124023 -0.37207,-0.242879 -0.21187,-0.113687 -0.46508,-0.186034 -0.25322,-0.07752 -0.58911,-0.07752 -0.744141,0 -1.147216,0.475422 -0.397907,0.470254 -0.397907,1.281571 0,0.837156 0.408242,1.271237 0.41341,0.43408 1.167881,0.43408 0.3514,0 0.63045,-0.07751 0.28422,-0.08268 0.47026,-0.191202 0.1757,-0.103353 0.31005,-0.217041 0.13436,-0.113687 0.24805,-0.222208 h 0.26355 v 1.586462 q -0.43925,0.206705 -0.91984,0.32556 -0.47542,0.124023 -1.05419,0.124024 z"
         style="font-weight:bold;-inkscape-font-specification:'sans-serif Bold'"
         id="path118" />
      <path
         d="m 109.05842,67.23582 h -4.25812 q 0.0413,0.682127 0.51676,1.043861 0.48059,0.361734 1.41076,0.361734 0.58911,0 1.14205,-0.211873 0.55294,-0.211873 0.87333,-0.454751 h 0.2067 v 1.493444 q -0.63045,0.253214 -1.18855,0.366902 -0.5581,0.113687 -1.23506,0.113687 -1.74666,0 -2.67683,-0.785479 -0.93018,-0.785479 -0.93018,-2.237582 0,-1.436601 0.8785,-2.273756 0.88366,-0.842323 2.41845,-0.842323 1.41593,0 2.12906,0.7183 0.71313,0.713132 0.71313,2.056715 z m -1.85001,-1.090369 q -0.0155,-0.583942 -0.28938,-0.878496 -0.27389,-0.294555 -0.85266,-0.294555 -0.53743,0 -0.88367,0.279052 -0.34623,0.279051 -0.38757,0.893999 z"
         style="font-weight:bold;-inkscape-font-specification:'sans-serif Bold'"
         id="path120" />
      <path
         d="m 35.00633,81.508805 v -1.209224 q -0.377236,0.03101 -0.816485,0.08785 -0.439248,0.05168 -0.666623,0.124024 -0.279052,0.08785 -0.428913,0.258381 -0.144694,0.165364 -0.144694,0.439248 0,0.180867 0.03101,0.294555 0.03101,0.113688 0.155029,0.21704 0.118855,0.103353 0.284219,0.155029 0.165364,0.04651 0.516763,0.04651 0.279052,0 0.563271,-0.113688 0.289387,-0.113688 0.506427,-0.299723 z m 0,0.899168 q -0.149861,0.113687 -0.372069,0.273884 -0.222208,0.160196 -0.418577,0.253213 -0.273885,0.124024 -0.568439,0.180867 -0.294555,0.06201 -0.645954,0.06201 -0.82682,0 -1.384924,-0.511595 -0.558103,-0.511595 -0.558103,-1.30741 0,-0.635618 0.284219,-1.038693 0.28422,-0.403075 0.80615,-0.635618 0.516763,-0.232543 1.281571,-0.330728 0.764809,-0.09819 1.586462,-0.144693 V 79.1782 q 0,-0.480589 -0.39274,-0.661456 -0.39274,-0.186035 -1.157548,-0.186035 -0.459919,0 -0.981849,0.165364 -0.521931,0.160196 -0.749306,0.248046 h -0.170532 v -1.400427 q 0.294555,-0.07751 0.956011,-0.180867 0.666624,-0.10852 1.333248,-0.10852 1.586461,0 2.289258,0.490925 0.707965,0.485757 0.707965,1.529617 v 3.948067 H 35.00633 Z"
         style="font-weight:bold;-inkscape-font-specification:'sans-serif Bold'"
         id="path122" />
      <path
         d="M 44.390741,83.02292 H 42.52006 v -2.878368 q 0,-0.351399 -0.03617,-0.69763 -0.03617,-0.351398 -0.124024,-0.516762 -0.103352,-0.191202 -0.304889,-0.279052 -0.19637,-0.08785 -0.552937,-0.08785 -0.253213,0 -0.516762,0.08268 -0.258382,0.08268 -0.563272,0.263549 v 4.113431 h -1.860345 v -5.803245 h 1.860345 v 0.640786 q 0.496093,-0.387572 0.950844,-0.594277 0.459919,-0.206705 1.018022,-0.206705 0.940508,0 1.467606,0.547768 0.532266,0.547769 0.532266,1.638138 z"
         style="font-weight:bold;-inkscape-font-specification:'sans-serif Bold'"
         id="path124" />
      <path
         d="m 51.749441,83.02292 h -1.860346 v -0.604612 q -0.480589,0.392739 -0.899167,0.578774 -0.418578,0.186035 -0.966346,0.186035 -1.059364,0 -1.694982,-0.816485 -0.635618,-0.816486 -0.635618,-2.201409 0,-0.738971 0.211873,-1.30741 0.21704,-0.573607 0.589109,-0.981849 0.351399,-0.387572 0.852659,-0.599445 0.50126,-0.21704 1.002519,-0.21704 0.521931,0 0.852659,0.113688 0.335895,0.10852 0.687294,0.279051 v -2.470125 h 1.860346 z m -1.860346,-1.601964 v -2.847363 q -0.19637,-0.08268 -0.41341,-0.118855 -0.21704,-0.03617 -0.397907,-0.03617 -0.733803,0 -1.100705,0.459918 -0.366901,0.454752 -0.366901,1.266069 0,0.852658 0.294554,1.24023 0.294555,0.382405 0.945676,0.382405 0.253214,0 0.537433,-0.09302 0.28422,-0.09819 0.50126,-0.253214 z"
         style="font-weight:bold;-inkscape-font-specification:'sans-serif Bold'"
         id="path126" />
      <path
         d="m 38.401461,95.812796 q -0.516762,0.201538 -1.369421,0.403075 -0.852658,0.19637 -1.700149,0.19637 -1.963698,0 -3.074738,-1.064531 -1.11104,-1.069699 -1.11104,-2.950715 0,-1.793166 1.121375,-2.888703 1.121375,-1.100705 3.126415,-1.100705 0.759641,0 1.446935,0.139526 0.687294,0.134358 1.529618,0.542601 v 1.803502 h -0.222208 q -0.144694,-0.10852 -0.423746,-0.30489 -0.279052,-0.201538 -0.537433,-0.341064 -0.299722,-0.165364 -0.702797,-0.284219 -0.397908,-0.118856 -0.847491,-0.118856 -0.527098,0 -0.956011,0.155029 -0.428913,0.155029 -0.769976,0.475422 -0.325561,0.310058 -0.516763,0.790647 -0.186035,0.475421 -0.186035,1.100704 0,1.276404 0.676959,1.953363 0.67696,0.676959 1.999872,0.676959 0.113688,0 0.248046,-0.0052 0.139526,-0.0052 0.253214,-0.0155 v -1.508947 h -1.534785 v -1.452103 h 3.550159 z"
         style="font-weight:bold;-inkscape-font-specification:'sans-serif Bold'"
         id="path128" />
      <path
         d="M 41.93095,96.252045 H 40.070605 V 88.211217 H 41.93095 Z"
         style="font-weight:bold;-inkscape-font-specification:'sans-serif Bold'"
         id="path130" />
      <path
         d="m 49.620378,93.353006 q 0,1.431433 -0.837155,2.258253 -0.831988,0.821653 -2.340935,0.821653 -1.508947,0 -2.346103,-0.821653 -0.831988,-0.82682 -0.831988,-2.258253 0,-1.441768 0.837156,-2.26342 0.842323,-0.821653 2.340935,-0.821653 1.519282,0 2.346103,0.82682 0.831987,0.82682 0.831987,2.258253 z m -2.289258,1.410762 q 0.180867,-0.222208 0.268716,-0.532265 0.09302,-0.315226 0.09302,-0.868162 0,-0.511595 -0.09302,-0.857826 -0.09302,-0.346231 -0.258381,-0.552936 -0.165364,-0.211873 -0.397907,-0.299722 -0.232543,-0.08785 -0.50126,-0.08785 -0.268717,0 -0.480589,0.07235 -0.206705,0.07235 -0.397908,0.289387 -0.170531,0.201538 -0.273884,0.552936 -0.09819,0.351399 -0.09819,0.883664 0,0.475422 0.08785,0.826821 0.08785,0.346231 0.258381,0.558103 0.165364,0.201538 0.39274,0.294555 0.232543,0.09302 0.527098,0.09302 0.253214,0 0.480589,-0.08268 0.232543,-0.08785 0.39274,-0.289387 z"
         style="font-weight:bold;-inkscape-font-specification:'sans-serif Bold'"
         id="path132" />
      <path
         d="m 57.020422,93.270324 q 0,1.369421 -0.759642,2.232415 -0.754473,0.862993 -1.886183,0.862993 -0.485757,0 -0.852659,-0.103352 -0.366901,-0.103353 -0.697629,-0.299722 l -0.07751,0.289387 h -1.782831 v -8.040828 h 1.860346 v 2.842195 q 0.428913,-0.341063 0.873329,-0.552936 0.449583,-0.211873 1.033525,-0.211873 1.100704,0 1.694981,0.795815 0.594278,0.790647 0.594278,2.185906 z m -1.91719,0.03617 q 0,-0.775144 -0.263549,-1.193721 -0.263549,-0.418578 -0.940508,-0.418578 -0.263549,0 -0.542601,0.08268 -0.279052,0.07751 -0.532265,0.227375 v 2.914542 q 0.201537,0.07235 0.382404,0.09819 0.180867,0.02584 0.434081,0.02584 0.73897,0 1.100704,-0.434081 0.361734,-0.43408 0.361734,-1.302242 z"
         style="font-weight:bold;-inkscape-font-specification:'sans-serif Bold'"
         id="path134" />
      <path
         d="m 61.877989,94.73793 v -1.209225 q -0.377237,0.03101 -0.816485,0.08785 -0.439248,0.05168 -0.666624,0.124023 -0.279052,0.08785 -0.428913,0.258381 -0.144694,0.165364 -0.144694,0.439249 0,0.180867 0.03101,0.294554 0.03101,0.113688 0.155029,0.217041 0.118855,0.103352 0.284219,0.155029 0.165364,0.04651 0.516763,0.04651 0.279052,0 0.563271,-0.113688 0.289387,-0.113687 0.506428,-0.299722 z m 0,0.899167 q -0.149861,0.113688 -0.372069,0.273884 -0.222208,0.160197 -0.418578,0.253214 -0.273884,0.124023 -0.568439,0.180867 -0.294555,0.06201 -0.645953,0.06201 -0.826821,0 -1.384924,-0.511595 -0.558104,-0.511595 -0.558104,-1.307409 0,-0.635618 0.284219,-1.038693 0.28422,-0.403075 0.80615,-0.635618 0.516763,-0.232543 1.281572,-0.330728 0.764808,-0.09819 1.586461,-0.144694 v -0.03101 q 0,-0.480589 -0.39274,-0.661456 -0.392739,-0.186034 -1.157548,-0.186034 -0.459919,0 -0.981849,0.165364 -0.52193,0.160196 -0.749306,0.248046 h -0.170532 v -1.400422 q 0.294555,-0.07752 0.956011,-0.180867 0.666624,-0.10852 1.333248,-0.10852 1.586461,0 2.289259,0.490924 0.707965,0.485757 0.707965,1.529618 v 3.948067 h -1.844843 z"
         style="font-weight:bold;-inkscape-font-specification:'sans-serif Bold'"
         id="path136" />
      <path
         d="m 67.293661,96.252045 h -1.860345 v -8.040828 h 1.860345 z"
         style="font-weight:bold;-inkscape-font-specification:'sans-serif Bold'"
         id="path138" />
      <path
         d="m 76.249161,96.401906 q -0.857826,0 -1.586461,-0.253214 -0.723468,-0.253214 -1.245398,-0.754473 -0.521931,-0.50126 -0.811318,-1.250566 -0.284219,-0.749306 -0.284219,-1.731155 0,-0.91467 0.273884,-1.658808 0.273884,-0.744138 0.795815,-1.276404 0.501259,-0.511595 1.24023,-0.790647 0.744138,-0.279052 1.622635,-0.279052 0.485757,0 0.873329,0.05684 0.392739,0.05168 0.723467,0.139526 0.346231,0.09819 0.625283,0.222208 0.28422,0.118855 0.496093,0.222208 v 1.865513 h -0.227376 q -0.144694,-0.124023 -0.366902,-0.294555 -0.21704,-0.170531 -0.496092,-0.335895 -0.284219,-0.165364 -0.614947,-0.279052 -0.330728,-0.113688 -0.707965,-0.113688 -0.418578,0 -0.795815,0.134358 -0.377236,0.129191 -0.697629,0.434081 -0.30489,0.294555 -0.496093,0.780312 -0.186034,0.485757 -0.186034,1.178219 0,0.723467 0.201537,1.209224 0.206705,0.485757 0.516763,0.764809 0.315225,0.28422 0.702797,0.408243 0.387572,0.118855 0.764809,0.118855 0.361734,0 0.713133,-0.10852 0.356566,-0.10852 0.656288,-0.294555 0.253214,-0.149861 0.470254,-0.320393 0.217041,-0.170531 0.356566,-0.294555 h 0.206706 v 1.839676 q -0.289388,0.12919 -0.552937,0.242878 -0.263549,0.113688 -0.552936,0.19637 -0.377236,0.10852 -0.707964,0.165364 -0.330729,0.05684 -0.909503,0.05684 z"
         style="font-weight:bold;-inkscape-font-specification:'sans-serif Bold'"
         id="path140" />
      <path
         d="m 86.269186,93.353006 q 0,1.431433 -0.837156,2.258253 -0.831987,0.821653 -2.340935,0.821653 -1.508947,0 -2.346102,-0.821653 -0.831988,-0.82682 -0.831988,-2.258253 0,-1.441768 0.837156,-2.26342 0.842323,-0.821653 2.340934,-0.821653 1.519283,0 2.346103,0.82682 0.831988,0.82682 0.831988,2.258253 z m -2.289259,1.410762 q 0.180867,-0.222208 0.268717,-0.532265 0.09302,-0.315226 0.09302,-0.868162 0,-0.511595 -0.09302,-0.857826 -0.09302,-0.346231 -0.258381,-0.552936 -0.165365,-0.211873 -0.397908,-0.299722 -0.232543,-0.08785 -0.50126,-0.08785 -0.268716,0 -0.480589,0.07235 -0.206705,0.07235 -0.397907,0.289387 -0.170532,0.201538 -0.273884,0.552936 -0.09819,0.351399 -0.09819,0.883664 0,0.475422 0.08785,0.826821 0.08785,0.346231 0.258382,0.558103 0.165364,0.201538 0.392739,0.294555 0.232544,0.09302 0.527098,0.09302 0.253214,0 0.48059,-0.08268 0.232543,-0.08785 0.392739,-0.289387 z"
         style="font-weight:bold;-inkscape-font-specification:'sans-serif Bold'"
         id="path142" />
      <path
         d="m 93.286825,92.138614 v 4.113431 h -1.870681 v -2.899039 q 0,-0.423745 -0.02067,-0.7183 -0.02067,-0.299722 -0.113688,-0.485757 -0.09302,-0.186035 -0.284219,-0.268717 -0.186035,-0.08785 -0.527098,-0.08785 -0.273884,0 -0.532265,0.113688 -0.258382,0.10852 -0.465087,0.232543 v 4.113431 H 87.61277 v -5.803245 h 1.860346 v 0.640786 q 0.480589,-0.377237 0.919838,-0.58911 0.439248,-0.211873 0.971514,-0.211873 0.573606,0 1.012854,0.258382 0.439249,0.253213 0.687295,0.749306 0.558103,-0.470254 1.085201,-0.738971 0.527098,-0.268717 1.033526,-0.268717 0.940508,0 1.426265,0.563272 0.490924,0.563271 0.490924,1.622634 v 3.777536 h -1.870681 v -2.899039 q 0,-0.428913 -0.02067,-0.723468 -0.0155,-0.294554 -0.10852,-0.480589 -0.08785,-0.186035 -0.279052,-0.268717 -0.191202,-0.08785 -0.537433,-0.08785 -0.232544,0 -0.454752,0.08268 -0.222207,0.07751 -0.5426,0.263549 z"
         style="font-weight:bold;-inkscape-font-specification:'sans-serif Bold'"
         id="path144" />
      <path
         d="m 104.49024,92.138614 v 4.113431 h -1.87068 v -2.899039 q 0,-0.423745 -0.0207,-0.7183 -0.0207,-0.299722 -0.11369,-0.485757 -0.093,-0.186035 -0.28422,-0.268717 -0.18603,-0.08785 -0.52709,-0.08785 -0.27389,0 -0.53227,0.113688 -0.25838,0.10852 -0.46509,0.232543 v 4.113431 h -1.860341 v -5.803245 h 1.860341 v 0.640786 q 0.48059,-0.377237 0.91984,-0.58911 0.43925,-0.211873 0.97152,-0.211873 0.5736,0 1.01285,0.258382 0.43925,0.253213 0.6873,0.749306 0.5581,-0.470254 1.0852,-0.738971 0.52709,-0.268717 1.03352,-0.268717 0.94051,0 1.42627,0.563272 0.49092,0.563271 0.49092,1.622634 v 3.777536 h -1.87068 v -2.899039 q 0,-0.428913 -0.0207,-0.723468 -0.0155,-0.294554 -0.10852,-0.480589 -0.0879,-0.186035 -0.27905,-0.268717 -0.1912,-0.08785 -0.53743,-0.08785 -0.23255,0 -0.45476,0.08268 -0.2222,0.07751 -0.5426,0.263549 z"
         style="font-weight:bold;-inkscape-font-specification:'sans-serif Bold'"
         id="path146" />
      <path
         d="m 115.80218,96.252045 h -1.86035 v -0.640786 q -0.51676,0.39274 -0.94567,0.599445 -0.42892,0.201537 -1.02319,0.201537 -0.96118,0 -1.48311,-0.552936 -0.51676,-0.552936 -0.51676,-1.63297 V 90.4488 h 1.87068 v 2.878368 q 0,0.439248 0.0258,0.733803 0.031,0.289387 0.13436,0.480589 0.0982,0.191202 0.29456,0.279052 0.20153,0.08785 0.5581,0.08785 0.23771,0 0.5271,-0.08785 0.28939,-0.08785 0.5581,-0.258381 V 90.4488 h 1.86035 z"
         style="font-weight:bold;-inkscape-font-specification:'sans-serif Bold'"
         id="path148" />
      <path
         d="m 123.39342,96.252045 h -1.87068 v -2.878368 q 0,-0.351399 -0.0362,-0.69763 -0.0362,-0.351399 -0.12402,-0.516763 -0.10335,-0.191202 -0.30489,-0.279052 -0.19637,-0.08785 -0.55294,-0.08785 -0.25321,0 -0.51676,0.08268 -0.25838,0.08268 -0.56327,0.263549 v 4.113431 h -1.86034 v -5.803245 h 1.86034 v 0.640786 q 0.49609,-0.387572 0.95084,-0.594278 0.45992,-0.206705 1.01803,-0.206705 0.9405,0 1.4676,0.547769 0.53227,0.547768 0.53227,1.638137 z"
         style="font-weight:bold;-inkscape-font-specification:'sans-serif Bold'"
         id="path150" />
      <path
         d="m 126.96942,96.252045 h -1.86035 V 90.4488 h 1.86035 z m 0.0517,-6.630065 h -1.9637 v -1.410763 h 1.9637 z"
         style="font-weight:bold;-inkscape-font-specification:'sans-serif Bold'"
         id="path152" />
      <path
         d="m 131.74947,96.407073 q -0.75964,0 -1.39009,-0.180866 -0.62529,-0.180867 -1.09037,-0.558104 -0.45992,-0.377237 -0.71314,-0.950843 -0.25321,-0.573607 -0.25321,-1.343583 0,-0.811318 0.26872,-1.400427 0.27388,-0.58911 0.75964,-0.976682 0.47025,-0.366901 1.0852,-0.537433 0.61495,-0.170532 1.2764,-0.170532 0.59428,0 1.09554,0.129191 0.50126,0.129191 0.93534,0.335896 v 1.586461 h -0.26355 q -0.10852,-0.09302 -0.26355,-0.21704 -0.14986,-0.124023 -0.37207,-0.242879 -0.21187,-0.113687 -0.46508,-0.186034 -0.25322,-0.07752 -0.58911,-0.07752 -0.74414,0 -1.14721,0.475422 -0.39791,0.470254 -0.39791,1.281572 0,0.837155 0.40824,1.271236 0.41341,0.43408 1.16788,0.43408 0.3514,0 0.63045,-0.07751 0.28422,-0.08268 0.47026,-0.191202 0.1757,-0.103353 0.31006,-0.217041 0.13435,-0.113687 0.24804,-0.222207 h 0.26355 v 1.586461 q -0.43925,0.206705 -0.91984,0.32556 -0.47542,0.124023 -1.05419,0.124024 z"
         style="font-weight:bold;-inkscape-font-specification:'sans-serif Bold'"
         id="path154" />
      <path
         d="m 138.46222,94.73793 v -1.209225 q -0.37724,0.03101 -0.81649,0.08785 -0.43925,0.05168 -0.66662,0.124023 -0.27905,0.08785 -0.42891,0.258381 -0.1447,0.165364 -0.1447,0.439249 0,0.180867 0.031,0.294554 0.031,0.113688 0.15503,0.217041 0.11885,0.103352 0.28422,0.155029 0.16536,0.04651 0.51676,0.04651 0.27905,0 0.56327,-0.113688 0.28939,-0.113687 0.50643,-0.299722 z m 0,0.899167 q -0.14986,0.113688 -0.37207,0.273884 -0.22221,0.160197 -0.41858,0.253214 -0.27388,0.124023 -0.56844,0.180867 -0.29455,0.06201 -0.64595,0.06201 -0.82682,0 -1.38493,-0.511595 -0.5581,-0.511595 -0.5581,-1.307409 0,-0.635618 0.28422,-1.038693 0.28422,-0.403075 0.80615,-0.635618 0.51676,-0.232543 1.28157,-0.330728 0.76481,-0.09819 1.58646,-0.144694 v -0.03101 q 0,-0.480589 -0.39274,-0.661456 -0.39274,-0.186034 -1.15755,-0.186034 -0.45991,0 -0.98184,0.165364 -0.52193,0.160196 -0.74931,0.248046 h -0.17053 v -1.400422 q 0.29455,-0.07752 0.95601,-0.180867 0.66662,-0.10852 1.33325,-0.10852 1.58646,0 2.28926,0.490924 0.70796,0.485757 0.70796,1.529618 v 3.948067 h -1.84484 z"
         style="font-weight:bold;-inkscape-font-specification:'sans-serif Bold'"
         id="path156" />
      <path
         d="m 145.7279,96.200368 q -0.29972,0.07751 -0.63562,0.118856 -0.33589,0.04651 -0.82165,0.04651 -1.0852,0 -1.61747,-0.439248 -0.5271,-0.439248 -0.5271,-1.503779 v -2.713004 h -0.7648 v -1.260901 h 0.7648 v -1.658808 h 1.86035 v 1.658808 h 1.74149 v 1.260901 h -1.74149 v 2.056715 q 0,0.30489 0.005,0.532266 0.005,0.227375 0.0827,0.408242 0.0724,0.180867 0.25321,0.289387 0.18604,0.103353 0.53744,0.103353 0.14469,0 0.37723,-0.06201 0.23771,-0.06201 0.33073,-0.113687 h 0.15503 z"
         style="font-weight:bold;-inkscape-font-specification:'sans-serif Bold'"
         id="path158" />
      <path
         d="m 148.69412,96.252045 h -1.86035 V 90.4488 h 1.86035 z m 0.0517,-6.630065 h -1.9637 v -1.410763 h 1.9637 z"
         style="font-weight:bold;-inkscape-font-specification:'sans-serif Bold'"
         id="path160" />
      <path
         d="m 156.38355,93.353006 q 0,1.431433 -0.83715,2.258253 -0.83199,0.821653 -2.34094,0.821653 -1.50895,0 -2.3461,-0.821653 -0.83199,-0.82682 -0.83199,-2.258253 0,-1.441768 0.83716,-2.26342 0.84232,-0.821653 2.34093,-0.821653 1.51928,0 2.3461,0.82682 0.83199,0.82682 0.83199,2.258253 z m -2.28926,1.410762 q 0.18087,-0.222208 0.26872,-0.532265 0.093,-0.315226 0.093,-0.868162 0,-0.511595 -0.093,-0.857826 -0.093,-0.346231 -0.25838,-0.552936 -0.16537,-0.211873 -0.39791,-0.299722 -0.23254,-0.08785 -0.50126,-0.08785 -0.26872,0 -0.48059,0.07235 -0.2067,0.07235 -0.39791,0.289387 -0.17053,0.201538 -0.27388,0.552936 -0.0982,0.351399 -0.0982,0.883664 0,0.475422 0.0879,0.826821 0.0879,0.346231 0.25839,0.558103 0.16536,0.201538 0.39274,0.294555 0.23254,0.09302 0.52709,0.09302 0.25322,0 0.48059,-0.08268 0.23255,-0.08785 0.39274,-0.289387 z"
         style="font-weight:bold;-inkscape-font-specification:'sans-serif Bold'"
         id="path162" />
      <path
         d="m 163.55621,96.252045 h -1.87068 v -2.878368 q 0,-0.351399 -0.0362,-0.69763 -0.0362,-0.351399 -0.12402,-0.516763 -0.10336,-0.191202 -0.30489,-0.279052 -0.19637,-0.08785 -0.55294,-0.08785 -0.25321,0 -0.51676,0.08268 -0.25838,0.08268 -0.56327,0.263549 v 4.113431 h -1.86035 v -5.803245 h 1.86035 v 0.640786 q 0.49609,-0.387572 0.95084,-0.594278 0.45992,-0.206705 1.01802,-0.206705 0.94051,0 1.46761,0.547769 0.53226,0.547768 0.53226,1.638137 z"
         style="font-weight:bold;-inkscape-font-specification:'sans-serif Bold'"
         id="path164" />
      <path
         d="m 170.31547,94.41237 q 0,0.899167 -0.80615,1.452103 -0.80615,0.547768 -2.20657,0.547768 -0.77515,0 -1.4056,-0.144693 -0.63045,-0.144694 -1.01285,-0.320393 v -1.529618 h 0.17053 q 0.13953,0.09819 0.32039,0.21704 0.18604,0.113688 0.52193,0.248047 0.28939,0.118855 0.65629,0.206705 0.3669,0.08268 0.78548,0.08268 0.54777,0 0.81132,-0.118856 0.26355,-0.124023 0.26355,-0.361734 0,-0.211872 -0.15503,-0.30489 -0.15503,-0.09819 -0.58911,-0.186034 -0.20671,-0.04651 -0.56327,-0.09819 -0.3514,-0.05684 -0.64079,-0.134358 -0.79065,-0.206705 -1.17305,-0.640786 -0.3824,-0.439248 -0.3824,-1.090369 0,-0.837156 0.79064,-1.390092 0.79582,-0.558104 2.17041,-0.558104 0.65112,0 1.24539,0.134359 0.59945,0.12919 0.93534,0.279052 v 1.467606 h -0.16019 q -0.41341,-0.28422 -0.94568,-0.459919 -0.5271,-0.180867 -1.0697,-0.180867 -0.44958,0 -0.75964,0.124023 -0.30489,0.124023 -0.30489,0.351398 0,0.206706 0.13953,0.315226 0.13952,0.10852 0.65629,0.21704 0.28422,0.05684 0.60978,0.113688 0.33073,0.05168 0.66145,0.134358 0.73381,0.191202 1.08521,0.604612 0.35139,0.408243 0.35139,1.023191 z"
         style="font-weight:bold;-inkscape-font-specification:'sans-serif Bold'"
         id="path166" />
      <path
         d="m 35.910665,104.14303 q 0,-0.28939 -0.118855,-0.49609 -0.118856,-0.20671 -0.408243,-0.32556 -0.201537,-0.0827 -0.470254,-0.0982 -0.268716,-0.0207 -0.625283,-0.0207 h -0.7183 v 2.07222 h 0.60978 q 0.475422,0 0.795815,-0.0465 0.320393,-0.0465 0.537433,-0.21187 0.206705,-0.1602 0.299722,-0.3514 0.09819,-0.19637 0.09819,-0.52193 z m 3.095409,5.33819 H 36.582457 L 34.4844,106.65968 h -0.91467 v 2.82154 h -1.974033 v -7.69464 h 3.327951 q 0.682127,0 1.173052,0.0775 0.490924,0.0775 0.919837,0.3359 0.434081,0.25838 0.687295,0.6718 0.258381,0.40824 0.258381,1.02836 0,0.85266 -0.397907,1.3901 -0.39274,0.53744 -1.126543,0.894 z"
         style="font-weight:bold;-inkscape-font-specification:'sans-serif Bold'"
         id="path168" />
      <path
         d="m 45.496613,106.92323 h -4.258124 q 0.04134,0.68213 0.516762,1.04387 0.48059,0.36173 1.410762,0.36173 0.58911,0 1.142046,-0.21187 0.552936,-0.21188 0.873329,-0.45475 h 0.206705 v 1.49345 q -0.63045,0.25321 -1.188554,0.3669 -0.558104,0.11369 -1.235063,0.11369 -1.746658,0 -2.676831,-0.78548 -0.930172,-0.78549 -0.930172,-2.2376 0,-1.43661 0.878496,-2.27377 0.883664,-0.84233 2.418449,-0.84233 1.41593,0 2.129063,0.71831 0.713132,0.71314 0.713132,2.05673 z m -1.85001,-1.09037 q -0.0155,-0.58395 -0.289387,-0.87851 -0.273885,-0.29455 -0.852659,-0.29455 -0.537433,0 -0.883664,0.27905 -0.346231,0.27905 -0.387572,0.89401 z"
         style="font-weight:bold;-inkscape-font-specification:'sans-serif Bold'"
         id="path170" />
      <path
         d="m 51.852794,107.64154 q 0,0.89917 -0.80615,1.45211 -0.80615,0.54777 -2.206576,0.54777 -0.775145,0 -1.405595,-0.1447 -0.63045,-0.14469 -1.012855,-0.32039 v -1.52963 h 0.170532 q 0.139526,0.0982 0.320393,0.21704 0.186034,0.11369 0.52193,0.24805 0.289387,0.11886 0.656289,0.20671 0.366901,0.0827 0.785479,0.0827 0.547768,0 0.811317,-0.11886 0.263549,-0.12402 0.263549,-0.36173 0,-0.21188 -0.155029,-0.30489 -0.155028,-0.0982 -0.589109,-0.18604 -0.206705,-0.0465 -0.563271,-0.0982 -0.351399,-0.0568 -0.640786,-0.13436 -0.790647,-0.20671 -1.173051,-0.64079 -0.382405,-0.43925 -0.382405,-1.09038 0,-0.83716 0.790647,-1.3901 0.795815,-0.5581 2.170403,-0.5581 0.651121,0 1.245398,0.13436 0.599445,0.12919 0.935341,0.27905 v 1.46762 h -0.160196 q -0.413411,-0.28422 -0.945676,-0.45992 -0.527098,-0.18087 -1.069699,-0.18087 -0.449583,0 -0.759641,0.12403 -0.30489,0.12402 -0.30489,0.3514 0,0.20671 0.139526,0.31523 0.139526,0.10852 0.656288,0.21704 0.28422,0.0568 0.60978,0.11369 0.330729,0.0517 0.661457,0.13436 0.733803,0.1912 1.085201,0.60461 0.351399,0.40825 0.351399,1.0232 z"
         style="font-weight:bold;-inkscape-font-specification:'sans-serif Bold'"
         id="path172" />
      <path
         d="m 58.808419,106.92323 h -4.258125 q 0.04134,0.68213 0.516763,1.04387 0.480589,0.36173 1.410762,0.36173 0.58911,0 1.142046,-0.21187 0.552936,-0.21188 0.873329,-0.45475 h 0.206705 v 1.49345 q -0.630451,0.25321 -1.188554,0.3669 -0.558104,0.11369 -1.235063,0.11369 -1.746658,0 -2.676831,-0.78548 -0.930173,-0.78549 -0.930173,-2.2376 0,-1.43661 0.878497,-2.27377 0.883664,-0.84233 2.418449,-0.84233 1.41593,0 2.129062,0.71831 0.713133,0.71314 0.713133,2.05673 z m -1.85001,-1.09037 q -0.0155,-0.58395 -0.289388,-0.87851 -0.273884,-0.29455 -0.852658,-0.29455 -0.537433,0 -0.883664,0.27905 -0.346231,0.27905 -0.387572,0.89401 z"
         style="font-weight:bold;-inkscape-font-specification:'sans-serif Bold'"
         id="path174" />
      <path
         d="m 63.634983,107.9671 v -1.20923 q -0.377237,0.031 -0.816485,0.0878 -0.439248,0.0517 -0.666624,0.12402 -0.279052,0.0879 -0.428913,0.25838 -0.144693,0.16537 -0.144693,0.43925 0,0.18087 0.03101,0.29456 0.03101,0.11369 0.155029,0.21704 0.118856,0.10335 0.28422,0.15503 0.165364,0.0465 0.516762,0.0465 0.279052,0 0.563272,-0.11369 0.289387,-0.11369 0.506427,-0.29972 z m 0,0.89917 q -0.149861,0.11369 -0.372069,0.27389 -0.222208,0.16019 -0.418578,0.25321 -0.273884,0.12402 -0.568439,0.18087 -0.294555,0.062 -0.645953,0.062 -0.82682,0 -1.384924,-0.5116 -0.558104,-0.5116 -0.558104,-1.30742 0,-0.63562 0.28422,-1.0387 0.284219,-0.40307 0.806149,-0.63562 0.516763,-0.23254 1.281572,-0.33073 0.764809,-0.0982 1.586461,-0.14469 v -0.031 q 0,-0.48059 -0.392739,-0.66146 -0.39274,-0.18604 -1.157549,-0.18604 -0.459918,0 -0.981849,0.16537 -0.52193,0.1602 -0.749306,0.24804 h -0.170531 v -1.40043 q 0.294554,-0.0775 0.956011,-0.18087 0.666623,-0.10852 1.333247,-0.10852 1.586462,0 2.289259,0.49093 0.707965,0.48576 0.707965,1.52963 v 3.94808 h -1.844843 z"
         style="font-weight:bold;-inkscape-font-specification:'sans-serif Bold'"
         id="path176" />
      <path
         d="m 71.39676,105.45045 h -0.165364 q -0.118855,-0.0413 -0.382404,-0.062 -0.263549,-0.0207 -0.439249,-0.0207 -0.397907,0 -0.702797,0.0517 -0.30489,0.0517 -0.656289,0.1757 v 3.88607 h -1.860345 v -5.80327 h 1.860345 v 0.85266 q 0.614948,-0.5271 1.069699,-0.69764 0.454751,-0.1757 0.837156,-0.1757 0.09819,0 0.222208,0.005 0.124023,0.005 0.21704,0.0155 z"
         style="font-weight:bold;-inkscape-font-specification:'sans-serif Bold'"
         id="path178" />
      <path
         d="m 75.48435,109.63625 q -0.759641,0 -1.390091,-0.18087 -0.625283,-0.18087 -1.090369,-0.55811 -0.459919,-0.37723 -0.713133,-0.95084 -0.253214,-0.57361 -0.253214,-1.34359 0,-0.81133 0.268717,-1.40044 0.273884,-0.58911 0.759641,-0.97669 0.470254,-0.3669 1.085202,-0.53743 0.614947,-0.17053 1.276404,-0.17053 0.594277,0 1.095536,0.12919 0.50126,0.12919 0.935341,0.33589 v 1.58648 h -0.263549 q -0.10852,-0.093 -0.263549,-0.21705 -0.149861,-0.12402 -0.372069,-0.24288 -0.211873,-0.11368 -0.465087,-0.18603 -0.253213,-0.0775 -0.589109,-0.0775 -0.744138,0 -1.147213,0.47542 -0.397907,0.47026 -0.397907,1.28158 0,0.83716 0.408242,1.27124 0.41341,0.43409 1.167884,0.43409 0.351398,0 0.63045,-0.0775 0.28422,-0.0827 0.470254,-0.19121 0.1757,-0.10335 0.310058,-0.21704 0.134358,-0.11369 0.248046,-0.22221 h 0.263549 v 1.58647 q -0.439248,0.20671 -0.919838,0.32556 -0.475421,0.12403 -1.054196,0.12403 z"
         style="font-weight:bold;-inkscape-font-specification:'sans-serif Bold'"
         id="path180" />
      <path
         d="m 84.512196,109.48122 h -1.87068 v -2.87838 q 0,-0.35141 -0.03617,-0.69764 -0.03617,-0.3514 -0.124023,-0.51676 -0.103352,-0.19121 -0.30489,-0.27906 -0.19637,-0.0879 -0.552936,-0.0879 -0.253214,0 -0.516763,0.0827 -0.258381,0.0827 -0.563271,0.26356 v 4.11345 h -1.860346 v -8.04087 h 1.860346 v 2.87838 q 0.496092,-0.38757 0.950843,-0.59428 0.459919,-0.20671 1.018023,-0.20671 0.940508,0 1.467606,0.54777 0.532265,0.54778 0.532265,1.63815 z"
         style="font-weight:bold;-inkscape-font-specification:'sans-serif Bold'"
         id="path182" />
    </g>
  </g>
</svg>
