<?xml version="1.0" encoding="UTF-8" standalone="no"?>
<!-- Created with Inkscape (http://www.inkscape.org/) -->

<svg
   sodipodi:docname="VSR-Hershey.svg"
   id="svg5"
   version="1.1"
   viewBox="0 0 127.58964 47.050586"
   height="1.8523853in"
   width="5.0232143in"
   inkscape:version="1.1 (c4e8f9e, 2021-05-24)"
   xmlns:inkscape="http://www.inkscape.org/namespaces/inkscape"
   xmlns:sodipodi="http://sodipodi.sourceforge.net/DTD/sodipodi-0.dtd"
   xmlns="http://www.w3.org/2000/svg"
   xmlns:svg="http://www.w3.org/2000/svg">
  <sodipodi:namedview
     id="namedview7"
     pagecolor="#ffffff"
     bordercolor="#666666"
     borderopacity="1.0"
     inkscape:pageshadow="2"
     inkscape:pageopacity="0.0"
     inkscape:pagecheckerboard="0"
     inkscape:document-units="mm"
     showgrid="false"
     inkscape:zoom="0.57905443"
     inkscape:cx="788.35421"
     inkscape:cy="466.27741"
     inkscape:window-width="1312"
     inkscape:window-height="872"
     inkscape:window-x="0"
     inkscape:window-y="0"
     inkscape:window-maximized="0"
     inkscape:current-layer="layer1"
     units="in"
     fit-margin-top="0"
     fit-margin-left="0"
     fit-margin-right="0"
     fit-margin-bottom="0" />
  <defs
     id="defs2" />
  <g
     inkscape:label="Layer 1"
     inkscape:groupmode="layer"
     id="layer1"
     transform="translate(-34.561596,-24.976006)">
    <g
       inkscape:label="Hershey Text"
       style="fill:none;stroke:#000000;stroke-linecap:round;stroke-linejoin:round"
       id="g36566">
      <g
         transform="translate(34.7262,32.4415)"
         id="g36496">
        <path
           d="M -3.15,690 H 186 81.9 L 340,31.5 595,687 h -97 195"
           style="stroke-width:0.2584in"
           transform="scale(0.0105833,-0.0105833)"
           id="path36472" />
        <path
           d="M 37.8,31.5 H 246 139 V 498 H 37.8 m 94.2,97 29,16 v 25 l -19,16 -25,-6 -10,-25 6,-13 19,-13"
           style="stroke-width:0.2584in"
           transform="matrix(0.0105833,0,0,-0.0105833,7.76814,0)"
           id="path36474" />
        <path
           d="M 252,31.5 H 31.5 132 V 495 H 41 132 V 350 l 44,50 41,41 51,31 44,23 53,6 h 76 V 378"
           style="stroke-width:0.2584in"
           transform="matrix(0.0105833,0,0,-0.0105833,11.0384,0)"
           id="path36476" />
        <path
           d="M 113,690 V 495 H 18.9 306 113 V 145 l 13,-50.5 25,-37.8 41,-25.2 41,-6.3 51,6.3 50,22.1 28,25.2"
           style="stroke-width:0.2584in"
           transform="matrix(0.0105833,0,0,-0.0105833,16.5734,0)"
           id="path36478" />
        <path
           d="M 9.45,495 H 117 V 170 l 3,-41 25,-40.8 28,-31.5 41,-25.2 60,-9.5 60,9.5 66,25.2 47,47.3 44,54 V 31.5 H 592 491 V 498 H 391"
           style="stroke-width:0.2584in"
           transform="matrix(0.0105833,0,0,-0.0105833,20.8703,0)"
           id="path36480" />
        <path
           d="m 75.6,447 53.4,41 73,19 85,-6 59,-19 51,-57 16,-50 V 158 L 372,104 302,50.4 233,25.2 142,31.5 72.5,69.3 41,120 v 56 l 28.3,60 72.7,44 85,10 H 413 V 34.6 h 97"
           style="stroke-width:0.2584in"
           transform="matrix(0.0105833,0,0,-0.0105833,27.9082,0)"
           id="path36482" />
        <path
           d="M 25.2,31.5 H 220 120 V 693 H 25.2"
           style="stroke-width:0.2584in"
           transform="matrix(0.0105833,0,0,-0.0105833,34.1417,0)"
           id="path36484" />
        <path
           d="M 78.8,31.5 V 224 129 l 41.2,-31.4 72,-44 85,-25.2 98,-3.2 82,22 63,47.3 28,56.5 6,79 -34,60 -66,38 -82,25 -129,38 -101,37 -44.4,38 -25.1,51 6.3,72 34.2,57 54,34 76,13 h 97 l 66,-22 51,-32 41,-31 31,-32 v -78 195"
           style="stroke-width:0.2584in"
           transform="matrix(0.0105833,0,0,-0.0105833,41.2431,0)"
           id="path36486" />
        <path
           d="M 18.9,-164 H 239 113 V 495 H 25.2 113 V 375 l 63,60 89,63 91,9 88,-35 60,-72 22,-94 -3,-92 L 504,139 457,85.1 394,50.4 334,37.8 284,31.5 H 120"
           style="stroke-width:0.2584in"
           transform="matrix(0.0105833,0,0,-0.0105833,48.281,0)"
           id="path36488" />
        <path
           d="m 75.6,447 53.4,41 73,19 85,-6 59,-19 51,-57 16,-50 V 158 L 372,104 302,50.4 233,25.2 142,31.5 72.5,69.3 41,120 v 56 l 28.3,60 72.7,44 85,10 H 413 V 34.6 h 97"
           style="stroke-width:0.2584in"
           transform="matrix(0.0105833,0,0,-0.0105833,55.0437,0)"
           id="path36490" />
        <path
           d="m 457,498 v -161 63 l -66,57 -95,41 H 224 L 161,479 107,438 69.3,375 53.5,302 V 217 L 75.6,145 126,72.4 198,31.5 252,25.2 h 60 l 88,28.4 54,44"
           style="stroke-width:0.2584in"
           transform="matrix(0.0105833,0,0,-0.0105833,61.2773,0)"
           id="path36492" />
        <path
           d="M 59.9,271 H 479 v 69 l -22,60 -32,41 -53,41 -70,19 -72,3 L 158,476 97.6,422 69.3,359 56.7,290 v -76 l 15.8,-60 50.5,-72.1 63,-41 50,-15.7 h 76 l 82,25.2 63,44.1"
           style="stroke-width:0.2584in"
           transform="matrix(0.0105833,0,0,-0.0105833,67.2145,0)"
           id="path36494" />
      </g>
      <g
         transform="translate(34.7262,45.6707)"
         id="g36504">
        <path
           d="m 75.6,447 53.4,41 73,19 85,-6 59,-19 51,-57 16,-50 V 158 L 372,104 302,50.4 233,25.2 142,31.5 72.5,69.3 41,120 v 56 l 28.3,60 72.7,44 85,10 H 413 V 34.6 h 97"
           style="stroke-width:0.2584in"
           transform="scale(0.0105833,-0.0105833)"
           id="path36498" />
        <path
           d="M 44.1,31.5 H 224 142 V 495 H 44.1 139 V 365 l 53,70 47,37 57,29 54,3 60,-9 56,-26 38,-47 13,-41 V 331 37.8 h -89 193"
           style="stroke-width:0.2584in"
           transform="matrix(0.0105833,0,0,-0.0105833,6.23356,0)"
           id="path36500" />
        <path
           d="M 353,690 H 466 V 154 l -66,-59.5 -57,-47.3 -75,-22 -44,3.2 -89,31.5 -56.2,66.1 -31.6,88 6.3,101 31.5,85 76,66 75,25 76,4 H 466 V 31.5 h 95"
           style="stroke-width:0.2584in"
           transform="matrix(0.0105833,0,0,-0.0105833,13.4302,0)"
           id="path36502" />
      </g>
      <g
         transform="translate(34.7262,58.8998)"
         id="g36546">
        <path
           d="M 504,369 H 702 598 V 28.4 135 L 539,85.1 476,47.2 403,25.2 H 337 L 284,31.5 208,59.9 151,113 91.4,195 63,312 l -3.1,101 31.5,110 62.6,88 82,66 82,22 92,-6 88,-31 63,-45 31,-47 v -69 192"
           style="stroke-width:0.2584in"
           transform="scale(0.0105833,-0.0105833)"
           id="path36506" />
        <path
           d="M 25.2,31.5 H 220 120 V 693 H 25.2"
           style="stroke-width:0.2584in"
           transform="matrix(0.0105833,0,0,-0.0105833,8.17031,0)"
           id="path36508" />
        <path
           d="m 280,25.2 66,6.3 73,37.8 53,59.7 26,76 6,82 -13,69 -37,66 -51,44 -69,32 -54,6 -85,-9 -78,-57 -47.7,-69 -15.8,-89 3.2,-85 34.7,-75 56.6,-60.1 76,-31.5 56,-3.2"
           style="stroke-width:0.2584in"
           transform="matrix(0.0105833,0,0,-0.0105833,11.2712,0)"
           id="path36510" />
        <path
           d="M -6.3,690 H 94.5 V 31.5 164 L 135,117 189,63 233,37.8 306,22 l 66,9.5 63,37.8 50,69.7 22,75 v 95 l -19,63 -34,56 -57,38 -66,22 -66,3 H 97.6"
           style="stroke-width:0.2584in"
           transform="matrix(0.0105833,0,0,-0.0105833,17.6424,0)"
           id="path36512" />
        <path
           d="m 75.6,447 53.4,41 73,19 85,-6 59,-19 51,-57 16,-50 V 158 L 372,104 302,50.4 233,25.2 142,31.5 72.5,69.3 41,120 v 56 l 28.3,60 72.7,44 85,10 H 413 V 34.6 h 97"
           style="stroke-width:0.2584in"
           transform="matrix(0.0105833,0,0,-0.0105833,24.1088,0)"
           id="path36514" />
        <path
           d="M 25.2,31.5 H 220 120 V 693 H 25.2"
           style="stroke-width:0.2584in"
           transform="matrix(0.0105833,0,0,-0.0105833,30.3423,0)"
           id="path36516" />
        <path
           d="m 595,696 v -198 94 l -59,38 -54,35 -57,25 -66,6 -63,-3 -69,-22 -69,-44 -54,-73 -34.7,-75 -9.4,-79 3.1,-101 22,-85 41,-75 76,-69.7 91,-37.8 142,-3.1 75,22 51,31.5 37,35.1"
           style="stroke-width:0.2584in"
           transform="matrix(0.0105833,0,0,-0.0105833,37.4437,0)"
           id="path36518" />
        <path
           d="m 280,25.2 66,6.3 73,37.8 53,59.7 26,76 6,82 -13,69 -37,66 -51,44 -69,32 -54,6 -85,-9 -78,-57 -47.7,-69 -15.8,-89 3.2,-85 34.7,-75 56.6,-60.1 76,-31.5 56,-3.2"
           style="stroke-width:0.2584in"
           transform="matrix(0.0105833,0,0,-0.0105833,44.8414,0)"
           id="path36520" />
        <path
           d="M 37.8,31.5 H 227 139 V 498 H 41 135 V 378 l 54,63 69,50 66,10 63,-10 35,-31 38,-60 6,-54 V 34.6 H 378 554 469 V 353 l 13,31 44,57 57,47 60,13 59,-6 45,-26 37,-47 16,-57 V 306 34.6 h -91 182"
           style="stroke-width:0.2584in"
           transform="matrix(0.0105833,0,0,-0.0105833,51.2126,0)"
           id="path36522" />
        <path
           d="M 37.8,31.5 H 227 139 V 498 H 41 135 V 378 l 54,63 69,50 66,10 63,-10 35,-31 38,-60 6,-54 V 34.6 H 378 554 469 V 353 l 13,31 44,57 57,47 60,13 59,-6 45,-26 37,-47 16,-57 V 306 34.6 h -91 182"
           style="stroke-width:0.2584in"
           transform="matrix(0.0105833,0,0,-0.0105833,61.4149,0)"
           id="path36524" />
        <path
           d="M 9.45,495 H 117 V 170 l 3,-41 25,-40.8 28,-31.5 41,-25.2 60,-9.5 60,9.5 66,25.2 47,47.3 44,54 V 31.5 H 592 491 V 498 H 391"
           style="stroke-width:0.2584in"
           transform="matrix(0.0105833,0,0,-0.0105833,71.6172,0)"
           id="path36526" />
        <path
           d="M 44.1,31.5 H 224 142 V 495 H 44.1 139 V 365 l 53,70 47,37 57,29 54,3 60,-9 56,-26 38,-47 13,-41 V 331 37.8 h -89 193"
           style="stroke-width:0.2584in"
           transform="matrix(0.0105833,0,0,-0.0105833,78.6551,0)"
           id="path36528" />
        <path
           d="M 37.8,31.5 H 246 139 V 498 H 37.8 m 94.2,97 29,16 v 25 l -19,16 -25,-6 -10,-25 6,-13 19,-13"
           style="stroke-width:0.2584in"
           transform="matrix(0.0105833,0,0,-0.0105833,85.8517,0)"
           id="path36530" />
        <path
           d="m 457,498 v -161 63 l -66,57 -95,41 H 224 L 161,479 107,438 69.3,375 53.5,302 V 217 L 75.6,145 126,72.4 198,31.5 252,25.2 h 60 l 88,28.4 54,44"
           style="stroke-width:0.2584in"
           transform="matrix(0.0105833,0,0,-0.0105833,89.122,0)"
           id="path36532" />
        <path
           d="m 75.6,447 53.4,41 73,19 85,-6 59,-19 51,-57 16,-50 V 158 L 372,104 302,50.4 233,25.2 142,31.5 72.5,69.3 41,120 v 56 l 28.3,60 72.7,44 85,10 H 413 V 34.6 h 97"
           style="stroke-width:0.2584in"
           transform="matrix(0.0105833,0,0,-0.0105833,95.0592,0)"
           id="path36534" />
        <path
           d="M 113,690 V 495 H 18.9 306 113 V 145 l 13,-50.5 25,-37.8 41,-25.2 41,-6.3 51,6.3 50,22.1 28,25.2"
           style="stroke-width:0.2584in"
           transform="matrix(0.0105833,0,0,-0.0105833,101.293,0)"
           id="path36536" />
        <path
           d="M 37.8,31.5 H 246 139 V 498 H 37.8 m 94.2,97 29,16 v 25 l -19,16 -25,-6 -10,-25 6,-13 19,-13"
           style="stroke-width:0.2584in"
           transform="matrix(0.0105833,0,0,-0.0105833,105.59,0)"
           id="path36538" />
        <path
           d="m 280,25.2 66,6.3 73,37.8 53,59.7 26,76 6,82 -13,69 -37,66 -51,44 -69,32 -54,6 -85,-9 -78,-57 -47.7,-69 -15.8,-89 3.2,-85 34.7,-75 56.6,-60.1 76,-31.5 56,-3.2"
           style="stroke-width:0.2584in"
           transform="matrix(0.0105833,0,0,-0.0105833,108.86,0)"
           id="path36540" />
        <path
           d="M 44.1,31.5 H 224 142 V 495 H 44.1 139 V 365 l 53,70 47,37 57,29 54,3 60,-9 56,-26 38,-47 13,-41 V 331 37.8 h -89 193"
           style="stroke-width:0.2584in"
           transform="matrix(0.0105833,0,0,-0.0105833,115.231,0)"
           id="path36542" />
        <path
           d="M 63,31.5 V 195 126 l 41,-37.8 47,-34.6 63,-25.2 60,-6.4 76,9.5 66,28.4 34,41.1 10,44 -10,50 -44,35 -53,19 -95,16 -88,15 -57,22 -37.4,32 -12.6,38 v 41 l 22,41 57,37 53,10 h 82 l 54,-16 41,-25 38,-35 28,-25 v -66 161"
           style="stroke-width:0.2584in"
           transform="matrix(0.0105833,0,0,-0.0105833,122.428,0)"
           id="path36544" />
      </g>
      <g
         transform="translate(34.7262,72.1289)"
         id="g36564">
        <path
           d="M 47.2,34.6 H 246 145 V 687 H 47.2 397 l 60,-13 47,-25 41,-51 13,-56 -4,-51 -15,-63 -29,-34 -41,-32 -53,-12 H 145 324 L 554,31.5 H 444 636"
           style="stroke-width:0.2584in"
           transform="scale(0.0105833,-0.0105833)"
           id="path36548" />
        <path
           d="M 59.9,271 H 479 v 69 l -22,60 -32,41 -53,41 -70,19 -72,3 L 158,476 97.6,422 69.3,359 56.7,290 v -76 l 15.8,-60 50.5,-72.1 63,-41 50,-15.7 h 76 l 82,25.2 63,44.1"
           style="stroke-width:0.2584in"
           transform="matrix(0.0105833,0,0,-0.0105833,7.36598,0)"
           id="path36550" />
        <path
           d="M 63,31.5 V 195 126 l 41,-37.8 47,-34.6 63,-25.2 60,-6.4 76,9.5 66,28.4 34,41.1 10,44 -10,50 -44,35 -53,19 -95,16 -88,15 -57,22 -37.4,32 -12.6,38 v 41 l 22,41 57,37 53,10 h 82 l 54,-16 41,-25 38,-35 28,-25 v -66 161"
           style="stroke-width:0.2584in"
           transform="matrix(0.0105833,0,0,-0.0105833,13.5043,0)"
           id="path36552" />
        <path
           d="M 59.9,271 H 479 v 69 l -22,60 -32,41 -53,41 -70,19 -72,3 L 158,476 97.6,422 69.3,359 56.7,290 v -76 l 15.8,-60 50.5,-72.1 63,-41 50,-15.7 h 76 l 82,25.2 63,44.1"
           style="stroke-width:0.2584in"
           transform="matrix(0.0105833,0,0,-0.0105833,19.4733,0)"
           id="path36554" />
        <path
           d="m 75.6,447 53.4,41 73,19 85,-6 59,-19 51,-57 16,-50 V 158 L 372,104 302,50.4 233,25.2 142,31.5 72.5,69.3 41,120 v 56 l 28.3,60 72.7,44 85,10 H 413 V 34.6 h 97"
           style="stroke-width:0.2584in"
           transform="matrix(0.0105833,0,0,-0.0105833,25.6116,0)"
           id="path36556" />
        <path
           d="M 252,31.5 H 31.5 132 V 495 H 41 132 V 350 l 44,50 41,41 51,31 44,23 53,6 h 76 V 378"
           style="stroke-width:0.2584in"
           transform="matrix(0.0105833,0,0,-0.0105833,31.8451,0)"
           id="path36558" />
        <path
           d="m 457,498 v -161 63 l -66,57 -95,41 H 224 L 161,479 107,438 69.3,375 53.5,302 V 217 L 75.6,145 126,72.4 198,31.5 252,25.2 h 60 l 88,28.4 54,44"
           style="stroke-width:0.2584in"
           transform="matrix(0.0105833,0,0,-0.0105833,37.3802,0)"
           id="path36560" />
        <path
           d="M 28.4,690 H 123 V 34.6 H 28.4 211 123 V 375 l 57,60 53,47 73,22 h 56 l 60,-19 38,-28 35,-51 6,-63 V 31.5 h -88 185"
           style="stroke-width:0.2584in"
           transform="matrix(0.0105833,0,0,-0.0105833,43.3174,0)"
           id="path36562" />
      </g>
    </g>
  </g>
</svg>
